<svg width="345" height="356" viewBox="0 0 345 356" fill="none" xmlns="http://www.w3.org/2000/svg">
<path d="M89.1133 16.5H255.387C295.146 16.5 327.5 48.8916 327.5 89V230C327.5 270.108 295.146 302.5 255.387 302.5H95.3311C92.0472 302.5 88.8001 303.329 85.9043 304.928L85.3301 305.258L28.8545 338.982L28.7539 339.042L28.6543 339.104C28.5497 339.168 28.476 339.202 28.4355 339.219C28.4194 339.225 28.4061 339.229 28.3965 339.232C28.3524 339.222 28.2363 339.188 28.0889 339.076C27.9414 338.964 27.8765 338.862 27.8545 338.822C27.8551 338.812 27.8562 338.798 27.8584 338.78C27.8638 338.737 27.8771 338.657 27.9111 338.539L44.9561 279.463C46.7308 273.312 45.3502 266.803 41.5059 261.938C25.2353 241.347 17 219.084 17 201.5V89C17 48.8916 49.354 16.5 89.1133 16.5Z" stroke="#68A176" stroke-width="33"/>
<path d="M97.25 92.6667C101.898 92.6667 105.667 88.8984 105.667 84.25C105.667 79.6016 101.898 75.8333 97.25 75.8333C92.6016 75.8333 88.8333 79.6016 88.8333 84.25C88.8333 88.8984 92.6016 92.6667 97.25 92.6667Z" fill="#68A176" stroke="#68A176" stroke-width="33" stroke-linecap="round" stroke-linejoin="round"/>
<path d="M103.983 90.9833L149.433 136.433" stroke="#68A176" stroke-width="33" stroke-linecap="round" stroke-linejoin="round"/>
<path d="M248.417 92.8333C253.065 92.8333 256.833 89.0651 256.833 84.4167C256.833 79.7683 253.065 76 248.417 76C243.768 76 240 79.7683 240 84.4167C240 89.0651 243.768 92.8333 248.417 92.8333Z" fill="#68A176" stroke="#68A176" stroke-width="33" stroke-linecap="round" stroke-linejoin="round"/>
<path d="M196.567 136.433L242.017 90.9833" stroke="#68A176" stroke-width="33" stroke-linecap="round" stroke-linejoin="round"/>
<path d="M97.25 244.167C101.898 244.167 105.667 240.398 105.667 235.75C105.667 231.102 101.898 227.333 97.25 227.333C92.6016 227.333 88.8333 231.102 88.8333 235.75C88.8333 240.398 92.6016 244.167 97.25 244.167Z" fill="#68A176" stroke="#68A176" stroke-width="33" stroke-linecap="round" stroke-linejoin="round"/>
<path d="M102.983 229.017L148.433 183.567" stroke="#68A176" stroke-width="33" stroke-linecap="round" stroke-linejoin="round"/>
<path d="M248.75 244.167C253.398 244.167 257.167 240.398 257.167 235.75C257.167 231.102 253.398 227.333 248.75 227.333C244.102 227.333 240.333 231.102 240.333 235.75C240.333 240.398 244.102 244.167 248.75 244.167Z" fill="#68A176" stroke="#68A176" stroke-width="33" stroke-linecap="round" stroke-linejoin="round"/>
<path d="M196.567 183.567L242.017 229.017" stroke="#68A176" stroke-width="33" stroke-linecap="round" stroke-linejoin="round"/>
<path d="M173 193.667C191.594 193.667 206.667 178.594 206.667 160C206.667 141.406 191.594 126.333 173 126.333C154.406 126.333 139.333 141.406 139.333 160C139.333 178.594 154.406 193.667 173 193.667Z" stroke="#68A176" stroke-width="33" stroke-linecap="round" stroke-linejoin="round"/>
</svg>
